<svg width="142" height="40" viewBox="0 0 142 40" fill="none" xmlns="http://www.w3.org/2000/svg">
<path d="M58.1371 28.7268H52.0156V9.81772H58.331C60.1837 9.81772 61.7749 10.1963 63.1044 10.9534C64.434 11.7043 65.4527 12.7846 66.1605 14.1941C66.8745 15.5975 67.2316 17.281 67.2316 19.2446C67.2316 21.2143 66.8715 22.907 66.1513 24.3227C65.4373 25.7384 64.4032 26.8279 63.049 27.5912C61.6949 28.3483 60.0576 28.7268 58.1371 28.7268ZM54.8686 26.2339H57.9801C59.4205 26.2339 60.6177 25.9631 61.5718 25.4214C62.5258 24.8736 63.2398 24.0826 63.7138 23.0485C64.1878 22.0083 64.4247 20.7403 64.4247 19.2446C64.4247 17.7611 64.1878 16.5024 63.7138 15.4683C63.246 14.4342 62.5474 13.6494 61.6179 13.1139C60.6885 12.5784 59.5344 12.3106 58.1556 12.3106H54.8686V26.2339ZM70.5577 28.7268V14.545H73.2261V16.7978H73.3738C73.6323 16.0346 74.0878 15.4344 74.7403 14.9974C75.3989 14.5542 76.1437 14.3326 76.9746 14.3326C77.147 14.3326 77.3501 14.3388 77.584 14.3511C77.8241 14.3634 78.0118 14.3788 78.1472 14.3973V17.0379C78.0364 17.0071 77.8395 16.9733 77.5563 16.9363C77.2732 16.8932 76.99 16.8717 76.7069 16.8717C76.0544 16.8717 75.4727 17.0102 74.9618 17.2872C74.4571 17.558 74.057 17.9366 73.7616 18.4228C73.4661 18.9029 73.3184 19.4508 73.3184 20.0663V28.7268H70.5577ZM86.0022 29.013C84.6726 29.013 83.5123 28.7083 82.5213 28.099C81.5303 27.4896 80.7609 26.6371 80.2131 25.5414C79.6653 24.4458 79.3914 23.1655 79.3914 21.7005C79.3914 20.2294 79.6653 18.943 80.2131 17.8412C80.7609 16.7394 81.5303 15.8838 82.5213 15.2744C83.5123 14.665 84.6726 14.3603 86.0022 14.3603C87.3317 14.3603 88.492 14.665 89.483 15.2744C90.474 15.8838 91.2434 16.7394 91.7912 17.8412C92.339 18.943 92.6129 20.2294 92.6129 21.7005C92.6129 23.1655 92.339 24.4458 91.7912 25.5414C91.2434 26.6371 90.474 27.4896 89.483 28.099C88.492 28.7083 87.3317 29.013 86.0022 29.013ZM86.0114 26.6956C86.8731 26.6956 87.5871 26.4678 88.1534 26.0123C88.7197 25.5568 89.1383 24.9505 89.4091 24.1934C89.6861 23.4363 89.8246 22.6023 89.8246 21.6913C89.8246 20.7865 89.6861 19.9555 89.4091 19.1984C89.1383 18.4351 88.7197 17.8227 88.1534 17.361C87.5871 16.8994 86.8731 16.6686 86.0114 16.6686C85.1435 16.6686 84.4233 16.8994 83.8509 17.361C83.2846 17.8227 82.8629 18.4351 82.586 19.1984C82.3151 19.9555 82.1797 20.7865 82.1797 21.6913C82.1797 22.6023 82.3151 23.4363 82.586 24.1934C82.8629 24.9505 83.2846 25.5568 83.8509 26.0123C84.4233 26.4678 85.1435 26.6956 86.0114 26.6956ZM95.6944 34.045V14.545H98.3905V16.844H98.6213C98.7813 16.5485 99.0122 16.2069 99.3138 15.8191C99.6154 15.4314 100.034 15.0928 100.569 14.8035C101.105 14.5081 101.813 14.3603 102.693 14.3603C103.838 14.3603 104.86 14.6496 105.758 15.2282C106.657 15.8068 107.362 16.6409 107.873 17.7304C108.39 18.8198 108.648 20.1309 108.648 21.6636C108.648 23.1963 108.393 24.5104 107.882 25.6061C107.371 26.6956 106.669 27.5358 105.777 28.1267C104.884 28.7114 103.866 29.0038 102.721 29.0038C101.859 29.0038 101.154 28.8591 100.606 28.5698C100.065 28.2805 99.64 27.942 99.3322 27.5542C99.0245 27.1664 98.7875 26.8217 98.6213 26.5201H98.4551V34.045H95.6944ZM98.3997 21.6359C98.3997 22.6331 98.5444 23.5071 98.8337 24.2581C99.123 25.009 99.5415 25.5968 100.089 26.0216C100.637 26.4401 101.308 26.6494 102.102 26.6494C102.927 26.6494 103.616 26.4309 104.17 25.9939C104.724 25.5507 105.143 24.9505 105.426 24.1934C105.715 23.4363 105.86 22.5838 105.86 21.6359C105.86 20.7003 105.718 19.8601 105.435 19.1153C105.158 18.3705 104.74 17.7827 104.18 17.3518C103.626 16.9209 102.933 16.7055 102.102 16.7055C101.302 16.7055 100.625 16.9117 100.071 17.3241C99.523 17.7365 99.1076 18.312 98.8244 19.0507C98.5413 19.7893 98.3997 20.651 98.3997 21.6359ZM114.502 9.81772V28.7268H111.741V9.81772H114.502ZM124.328 29.013C122.931 29.013 121.728 28.7145 120.718 28.1174C119.715 27.5142 118.939 26.6679 118.391 25.5784C117.85 24.4827 117.579 23.1993 117.579 21.7282C117.579 20.2756 117.85 18.9953 118.391 17.8873C118.939 16.7794 119.702 15.9145 120.681 15.2929C121.666 14.6712 122.817 14.3603 124.134 14.3603C124.934 14.3603 125.71 14.4927 126.461 14.7573C127.212 15.022 127.886 15.4375 128.483 16.0038C129.08 16.5701 129.551 17.3056 129.896 18.2105C130.24 19.1091 130.413 20.2017 130.413 21.4882V22.4669H119.139V20.3987H127.707C127.707 19.6724 127.56 19.0291 127.264 18.469C126.969 17.9027 126.553 17.4564 126.018 17.1302C125.488 16.804 124.867 16.6409 124.153 16.6409C123.377 16.6409 122.7 16.8317 122.121 17.2133C121.549 17.5888 121.106 18.0812 120.792 18.6906C120.484 19.2938 120.33 19.9493 120.33 20.6572V22.273C120.33 23.2209 120.496 24.0272 120.829 24.692C121.167 25.3568 121.638 25.8646 122.241 26.2154C122.845 26.5601 123.55 26.7325 124.356 26.7325C124.879 26.7325 125.356 26.6586 125.787 26.5109C126.218 26.357 126.59 26.1293 126.904 25.8277C127.218 25.526 127.458 25.1537 127.624 24.7105L130.237 25.1814C130.028 25.9508 129.652 26.6248 129.111 27.2034C128.575 27.7758 127.901 28.2221 127.089 28.5421C126.282 28.8561 125.362 29.013 124.328 29.013ZM140.096 14.545V16.7609H132.349V14.545H140.096ZM134.427 11.1473H137.187V24.5627C137.187 25.0983 137.267 25.5014 137.427 25.7723C137.587 26.0369 137.794 26.2185 138.046 26.317C138.305 26.4093 138.585 26.4555 138.886 26.4555C139.108 26.4555 139.302 26.4401 139.468 26.4093C139.634 26.3786 139.763 26.3539 139.856 26.3355L140.354 28.616C140.194 28.6776 139.966 28.7391 139.671 28.8007C139.376 28.8684 139.006 28.9053 138.563 28.9115C137.837 28.9238 137.16 28.7945 136.532 28.5237C135.904 28.2528 135.396 27.8343 135.008 27.268C134.621 26.7017 134.427 25.9908 134.427 25.1352V11.1473Z" fill="#111111"/>
<path d="M28.83 8.00697C29.9614 11.0123 29.9807 14.9026 28.5673 19.4459C27.9026 21.5824 27.589 23.1242 27.5135 24.2189C27.4364 25.3374 27.6202 25.8183 27.7461 26.002C27.8268 26.1197 27.9617 26.2358 28.3748 26.2692C28.8294 26.3061 29.4386 26.2215 30.2225 26.0452C30.5911 25.9624 30.9704 25.8662 31.3698 25.7648L31.4105 25.7545C31.8181 25.6511 32.2465 25.5429 32.6691 25.4499C33.4913 25.269 34.4175 25.1152 35.2769 25.2021C36.1854 25.294 37.1264 25.6714 37.7415 26.6257C38.3095 27.5069 38.462 28.6778 38.3576 30.0498C38.1122 33.2767 35.5363 35.4087 32.6 36.6638C29.6162 37.9393 25.8914 38.4914 22.5406 38.3895C20.8581 38.3383 19.2324 38.1214 17.8097 37.7278C16.4037 37.3387 15.1074 36.7528 14.1695 35.9034C13.1945 35.0204 12.5926 33.8273 12.7429 32.3897C12.8852 31.0291 13.6815 29.6642 14.9842 28.3048C17.3923 25.7907 19.2481 23.7094 20.5248 22.1066C20.9673 21.551 21.3333 21.0616 21.6253 20.6384C20.6131 21.1416 19.2189 21.9595 17.4066 23.1432C14.8285 24.8271 12.3056 25.9652 10.0625 26.4899C7.85468 27.0064 5.73189 26.9686 4.13235 26.0298C2.42657 25.0287 1.63869 23.2053 1.76292 20.9283C1.88405 18.708 2.85988 15.941 4.75881 12.6454L28.83 8.00697ZM28.83 8.00697C27.6894 4.97725 25.4401 2.92424 22.6166 2.12367M28.83 8.00697L22.6166 2.12367M22.6166 2.12367C16.9905 0.528506 9.75369 3.97459 4.75888 12.6452L22.6166 2.12367ZM23.1915 20.0386C23.1915 20.0386 23.1907 20.0386 23.189 20.0386L23.1915 20.0386ZM22.441 19.1774C22.442 19.1691 22.4427 19.1682 22.4413 19.1759L22.441 19.1774Z" stroke="#111111" stroke-width="2.5"/>
</svg>
